<svg id="Layer_1" xmlns="http://www.w3.org/2000/svg" viewBox="0 0 494.4 452.1"><style>.st0{fill:#5f5f5f}.st1{fill:url(#SVGID_1_)}.st2{fill:url(#SVGID_2_)}.st3{fill:url(#SVGID_3_)}.st4{fill:#8a8a8a}.st5{fill:#f1f1f1}.st6,.st7{fill:#5a5a5a}.st7{opacity:.15;enable-background:new}.st8{fill:#f7f7f7}.st9{fill:#e4e4e4}.st10{fill:#e9e9e9}.st11{fill:url(#SVGID_4_)}.st12{fill:gray}.st13{fill:#fff}.st14{fill:#767676}.st15{fill:url(#SVGID_5_)}.st16{fill:#c3c3c3}.st17{fill:#dedede}.st18{fill:url(#SVGID_6_)}.st19{fill:#2d2d2d}.st20{fill:#eaeaea}.st21{fill:#3d3d3d}.st22{fill:#5d5d5d}.st23{fill:#353535}.st24{fill:#9b9b9b}</style><title>mascot-01-gray</title><path class="st0" d="M200.7 313.9c-2-4.4-3.6-9-4.8-13.7l16.6-20.8-11.8 34.5zm24.4 31.2c-3.7-2.8-7.1-6-10.2-9.4l11.8-29-1.6 38.4z"/><linearGradient id="SVGID_1_" gradientUnits="userSpaceOnUse" x1="150.27" y1="555.95" x2="150.27" y2="371" gradientTransform="translate(0 -107.18)"><stop offset="0" stop-color="#919191"/><stop offset=".25" stop-color="#8d8d8d"/><stop offset=".53" stop-color="#838383"/><stop offset=".81" stop-color="#727272"/><stop offset="1" stop-color="#646464"/></linearGradient><path class="st1" d="M146.4 263.8h7.7v185h-7.7z"/><linearGradient id="SVGID_2_" gradientUnits="userSpaceOnUse" x1="105.464" y1="556.347" x2="105.464" y2="368.327" gradientTransform="translate(-1.284 -105.548) scale(.9964)"><stop offset="0" stop-color="#919191"/><stop offset=".25" stop-color="#8d8d8d"/><stop offset=".53" stop-color="#838383"/><stop offset=".81" stop-color="#727272"/><stop offset="1" stop-color="#646464"/></linearGradient><path class="st2" d="M28.5 444l145.4-183.3 6 4.8L34.5 448.8z"/><linearGradient id="SVGID_3_" gradientUnits="userSpaceOnUse" x1="198.462" y1="555.927" x2="198.462" y2="367.877" gradientTransform="translate(-.316 -105.104) scale(.9964)"><stop offset="0" stop-color="#919191"/><stop offset=".25" stop-color="#8d8d8d"/><stop offset=".53" stop-color="#838383"/><stop offset=".81" stop-color="#727272"/><stop offset="1" stop-color="#646464"/></linearGradient><path class="st3" d="M121.2 265.6l6.1-4.9L272.7 444l-6.1 4.8z"/><path class="st4" d="M282.9 359.8H0V124.7h300v235.1z"/><path class="st5" d="M271.2 135H28.8c-8.6 0-15.6 7-15.6 15.6v183.1c0 8.6 7 15.6 15.6 15.6h242.3c8.6 0 15.6-7 15.6-15.6v-183c.1-8.6-6.9-15.7-15.5-15.7z"/><path class="st6" d="M17.4 441.1h28.8v11H17.4zm118.5 0h28.8v11h-28.8zm116.9 0h28.8v11h-28.8z"/><path class="st7" d="M299.9 301s-38.2 7.5-63.6-11.5l-1.4 1-14-6.2.8-3.3c-1.9.9-4 .9-5.9 0-1.7 3.5-5.9 4.8-9.4 3.1l-.1-.1c-6.8-2.8 1.1-10.4 1.1-10.4l3.4-5.9-4.6 4.9s-10.1 2.8-10.1-4.9 11.8-6.9 11.8-6.9-12.1-1.3-11.1-7.7 17.7 0 17.7 0l10.3-2s-.5-3.6 2-4.2 11.2 9.8 11.2 9.8l13.4 17.5 48.4 7.5.1 19.3zm0-51s-34.6-3.1-37.3-52.7c0 0-19.3-3.1-21.4-28.9-3.1-1.2-5.5-3.9-6.3-7.2-1-5.3 19.6-10.5 33.6-11.2s31.3 21 31.3 21l.1 79z"/><path class="st8" d="M261.8 190.6c-3-.6-5.7-2.1-7.9-4.2h7.5l.4 4.2z"/><path class="st9" d="M238.6 257.1s1.5-17.9-5.6-17.8-4.3 10.7-4.3 10.7-19.6-16.6-24.9-10.5 10.4 10.4 10.4 10.4-15.2-3.7-15.2 5.2 13.4 6.2 13.4 6.2-12.5 6.5-7.4 12 14.2-2.2 14.2-2.2c1.9 1.6 4.4 2.3 6.9 1.9l12.5-15.9z"/><path class="st10" d="M340.4 272.1s-16.8 21.3-52.7 21.1-52.7-15.7-52.7-15.7l11.9-14c12.4 7.2 26.4 11.2 40.8 11.7 21.8 0 52.7-25.8 52.7-25.8v22.7z"/><path class="st6" d="M359.1 367.8l3.9 84.4h-52.1s19.4-13.2 35.1-18l-5.7-84.1h64l-5.8 84.1c15.7 4.8 35.1 18 35.1 18h-52.1l3.9-84.4h-26.3z"/><path class="st10" d="M404.7 268.8s14.2-.5 19.2 19.1c5.6 22.4-14.4 32.8-14.4 32.8V344s41.7-14.9 31.6-58.9c-9.4-40.1-40.5-40.1-40.5-40.1l4.1 23.8z"/><linearGradient id="SVGID_4_" gradientUnits="userSpaceOnUse" x1="426.833" y1="426.764" x2="407.183" y2="440.244" gradientTransform="translate(0 -107.18)"><stop offset="0" stop-color="#efefef" stop-opacity="0"/><stop offset="1" stop-color="#c2c2c2"/></linearGradient><path class="st11" d="M432.3 327.5c-6.2 7.3-14 13-22.9 16.5v-23.3c4.8-2.7 8.8-6.6 11.7-11.4l11.2 18.2z"/><path class="st12" d="M411.9 344l-6-98.8-34.3 2.6-34.3-2.6-6 98.8s-1.2 7.1 9.1 7.7h62.5c10.1-.7 9-7.7 9-7.7z"/><path class="st10" d="M405.9 245.1L371 290.4l-33.8-45.3z"/><path class="st6" d="M385.1 247.7H371l-14.1 1.8 9.7 12.1-5.3 16.9 9.7 11.9 9.6-11.9-5.2-16.9z"/><path class="st13" d="M366.8 247.7l-9.9 15.9-19.7-18.5h29.6zm8.4 0l9.9 15.9 19.7-18.5h-29.6z"/><path class="st14" d="M383.3 286.2h18.6v6.5h-18.6z"/><linearGradient id="SVGID_5_" gradientUnits="userSpaceOnUse" x1="280.322" y1="394.057" x2="240.162" y2="373.027" gradientTransform="translate(0 -107.18)"><stop offset="0" stop-color="#efefef" stop-opacity="0"/><stop offset="1" stop-color="#c2c2c2"/></linearGradient><path class="st15" d="M287.7 275.2c-14.4-.5-28.4-4.6-40.8-11.8l-11.9 14s16.8 15.4 52.7 15.6v-17.8z"/><path class="st10" d="M250.4 263.6l-13.3 17.3-12.2-5.7 14.5-20.8z"/><path class="st16" d="M295.2 169.4s-27.7 26.7-35.8-6.2c-8.1-32.9 29.2-19.5 29.2-19.5l6.6 25.7z"/><path class="st17" d="M470.6 145.6C468 47.1 368.2 69.1 342 76.2c-26.2 7.1-82.6 3.4-70.6 43 6.9 22.8 7.5 51 9.5 74.8 5.1 55.2 60.5 62.5 60.5 62.5 14.3 1.8 28.4 1.6 38.3-.1 24.1-4.1 53.5-22.2 68.3-37.3 14.1-14.4 23.2-69.8 23.2-69.8l-.6-3.7z"/><path class="st16" d="M462.2 145.3s-2.9 44.2-19.1 65.3c-16.2 21-37.3 34.5-68.4 39.7-26.2 4.5-50.6-1.6-66.2-7.3 16 11.3 32.9 13.5 32.9 13.5 14.3 1.8 28.4 1.6 38.3-.1 24.1-4.1 53.5-22.2 68.3-37.3 14.1-14.4 23.2-69.8 23.2-69.8l-9-4z"/><radialGradient id="SVGID_6_" cx="67.977" cy="257.347" r="19.931" gradientTransform="matrix(-.6248 .05563 .05563 .6248 322.842 17.273)" gradientUnits="userSpaceOnUse"><stop offset="0" stop-color="#c8c8c8"/><stop offset=".439" stop-color="#cecece" stop-opacity=".561"/><stop offset="1" stop-color="#dfdfdf" stop-opacity="0"/></radialGradient><circle class="st18" cx="294.7" cy="181.9" r="12.5"/><ellipse transform="rotate(-5.088 317.458 162.097) scale(1.00004)" class="st19" cx="317.4" cy="162.1" rx="9.3" ry="9.3"/><ellipse transform="rotate(-5.088 336.715 185.713) scale(1.00004)" class="st20" cx="336.7" cy="185.7" rx="3.4" ry="3.4"/><path class="st16" d="M419 76.4s-37.4 14.9-67.3 22.4c0 0-3.9 2.7-13.7 6.7 25.3-1.6 74.5-20.6 74.5-20.6s12.4 48.3 58.3 61.9C428.5 132 419 76.4 419 76.4z"/><ellipse transform="rotate(-5.088 316.007 161.496) scale(1.00004)" class="st21" cx="316" cy="161.5" rx="5.2" ry="5.2"/><path class="st16" d="M325.8 190.2s14.7 6.7 21.3 6.9c0-.1-18.7 9.2-21.3-6.9zm99.9-50.7s-10.3-12.7-37.1-10.3c-26.9 2.4-32 10-32 10l-20.5 1.8s-21.7-5.3-34.4-4.2c-12.7 1.1-25.1 6.2-25.1 6.2l-.9-6.5 27.3-7.2 43.8 4 45.4-11.9 24.3 3.6 9.3 13.2-.1 1.3z"/><path class="st22" d="M430.1 121.1s-20.9-5.7-42.5-3.8c-21.6 1.9-34.2 10.6-44 11.5-9.9.9-23.8-5.5-45.4-3.6-21.6 1.9-41.2 11.3-41.2 11.3-3.5 1.4-2.4 8.6 0 11.2 2.3 2.3 3.5 5.3 3.5 5.3 3.6 16.4 14.5 41.9 45 39.5 30.6-2.5 33.6-35.7 34.4-42.4.7-6.6 4.9-6.5 4.9-6.5s4.1-.9 6 5.5c1.9 6.4 10.8 38.6 41.3 35.6 30.5-3 36.8-30 37.4-46.8 0 0 .7-3.1 2.5-5.8 2-2.9 1.8-10.2-1.9-11zm-126.4 64.7c-24.1 3.8-33.8-19.3-33.6-35 .2-15.7 30.2-17.1 30.2-17.1s24.8-3.9 29.1 11.2c4.1 15.1-1.6 37.1-25.7 40.9zm89.2-7.9c-24.4.5-34-20.1-32.5-35.7C361.9 126.6 387 126 387 126s29.8-4 32.7 11.5c3 15.5-2.4 39.9-26.8 40.4z"/><path class="st13" d="M259.7 142.9c-.2-2.2 1.4-4.1 3.5-4.2 2.2-.2 4.1 1.4 4.2 3.6.2 2.2-1.4 4.1-3.6 4.2-2.1.1-4-1.5-4.1-3.6zm168.9-15.1c-.2-2.2-2.1-3.7-4.3-3.6-2.2.2-3.7 2.1-3.5 4.2.2 2.2 2.1 3.7 4.2 3.5 2.2 0 3.8-1.9 3.6-4.1z"/><ellipse transform="rotate(-5.088 381.875 158.113) scale(1.00004)" class="st19" cx="381.9" cy="158.1" rx="9.3" ry="9.3"/><ellipse transform="rotate(-5.088 380.979 157.097) scale(1.00004)" class="st21" cx="381" cy="157.1" rx="5.2" ry="5.2"/><path class="st23" d="M451.7 34.6S432 7 375.7 4.2c-56.2-2.8-103.2 33.1-110.9 71.3-7.7 38.2 8.9 52.3 8.9 52.3l4.9-32.7c32.7 8 70.7-3.2 70.7-3.2-3.2 3.4-14.7 10.5-14.7 10.5.9-.1 1.9-.3 2.8-.4 30.4-5.2 81.5-25.4 81.5-25.4s9.4 55.6 51.8 70.4c.1-.2 36.9-80.4-19-112.4z"/><path class="st19" d="M451.7 34.6s-59.2 23.8-108.2 32.1-78.6 8.7-78.6 8.7c-7.7 38.2 8.9 52.3 8.9 52.3l4.9-32.7c32.7 8 70.7-3.2 70.7-3.2-3.2 3.4-14.7 10.5-14.7 10.5.9-.1 1.9-.3 2.8-.4 30.4-5.2 81.5-25.4 81.5-25.4s9.6 56.4 51.9 71.2c0-.1 36.7-81.1-19.2-113.1z"/><path class="st16" d="M278.7 95c32.7 8 70.7-3.2 70.7-3.2-1.4 1.5-4.6 3.8-7.6 5.9 0-.1-40.2 8.4-63.1-2.7z"/><path class="st17" d="M456.1 169.6s32.7 20.2 33.7-13.7-32.6-12.9-32.6-12.9l-1.1 26.6z"/><path class="st23" d="M365 106.1s6.5-12.3 19.4-11.1c12.9 1.2 17.4 11.3 17.4 11.3s-8.6-5.4-17.4-5.3c-11.9.1-19.4 5.1-19.4 5.1zm-73.1 9s3.1-10.6 15.8-13.4c12.7-2.8 20.7 8.6 20.7 8.6s-8.8-4.8-20.1-3.1c-11.2 1.7-16.4 7.9-16.4 7.9z"/><ellipse transform="rotate(-5.088 338.343 223.116) scale(1.00004)" class="st6" cx="338.3" cy="223.1" rx="6.2" ry="7.6"/><path class="st24" d="M104.5 167.2c14.6-4.3 30-7.5 45.3-7.5 26.3 0 52.2 11.7 52.2 41 0 32-41.6 44.8-38.9 74.8H135c0-21.7 8.5-33.6 16.7-43 8.5-9.4 16.9-16.2 16.9-28.1 0-15.1-13-20.8-26.3-20.8-12.1 0-24.3 4.1-35.2 9.2l-2.6-25.6zM133.1 290h32v32h-32v-32z"/></svg>