<svg id="Layer_1" xmlns="http://www.w3.org/2000/svg" viewBox="0 0 494.4 452.1"><style>.st0{fill:#5f5f5f}.st1{fill:url(#SVGID_1_)}.st2{fill:url(#SVGID_2_)}.st3{fill:url(#SVGID_3_)}.st4{fill:#8a8a8a}.st5{fill:#f1f1f1}.st6{fill:#5a5a5a}.st7{fill:#f7f7f7}.st8{fill:#9b9b9b}</style><title>mascot-01-gray</title><path class="st0" d="M303.5 313.9c-2-4.4-3.6-9-4.8-13.7l16.6-20.8-11.8 34.5zm24.4 31.2c-3.7-2.8-7.1-6-10.2-9.4l11.8-29-1.6 38.4z"/><linearGradient id="SVGID_1_" gradientUnits="userSpaceOnUse" x1="253.05" y1="-101.98" x2="253.05" y2="83.02" gradientTransform="matrix(1 0 0 -1 0 346.82)"><stop offset="0" stop-color="#919191"/><stop offset=".25" stop-color="#8d8d8d"/><stop offset=".53" stop-color="#838383"/><stop offset=".81" stop-color="#727272"/><stop offset="1" stop-color="#646464"/></linearGradient><path class="st1" d="M249.2 263.8h7.7v185h-7.7z"/><linearGradient id="SVGID_2_" gradientUnits="userSpaceOnUse" x1="209.423" y1="-102.868" x2="209.423" y2="85.152" gradientTransform="matrix(.9964 -.00087 -.00087 -.9964 -1.677 346.424)"><stop offset="0" stop-color="#919191"/><stop offset=".25" stop-color="#8d8d8d"/><stop offset=".53" stop-color="#838383"/><stop offset=".81" stop-color="#727272"/><stop offset="1" stop-color="#646464"/></linearGradient><path class="st2" d="M131.3 444l145.4-183.3 6 4.8-145.4 183.3z"/><linearGradient id="SVGID_3_" gradientUnits="userSpaceOnUse" x1="302.529" y1="-101.766" x2="302.529" y2="86.284" gradientTransform="matrix(.9964 .00105 .00105 -.9964 -1.682 347.314)"><stop offset="0" stop-color="#919191"/><stop offset=".25" stop-color="#8d8d8d"/><stop offset=".53" stop-color="#838383"/><stop offset=".81" stop-color="#727272"/><stop offset="1" stop-color="#646464"/></linearGradient><path class="st3" d="M224 265.6l6.1-4.9L375.5 444l-6.1 4.8z"/><path class="st4" d="M385.7 359.8H102.8V124.7h300v235.1z"/><path class="st5" d="M374 135H131.6c-8.6 0-15.6 7-15.6 15.6v183.1c0 8.6 7 15.6 15.6 15.6h242.3c8.6 0 15.6-7 15.6-15.6v-183c.1-8.6-6.9-15.7-15.5-15.7z"/><path class="st6" d="M120.2 441.1H149v11h-28.8zm118.5 0h28.8v11h-28.8zm116.9 0h28.8v11h-28.8z"/><path class="st7" d="M364.6 190.6c-3-.6-5.7-2.1-7.9-4.2h7.5l.4 4.2z"/><path class="st8" d="M207.3 167.2c14.6-4.3 30-7.5 45.3-7.5 26.3 0 52.2 11.7 52.2 41 0 32-41.6 44.8-38.9 74.8h-28.1c0-21.7 8.5-33.6 16.7-43 8.5-9.4 16.9-16.2 16.9-28.1 0-15.1-13-20.8-26.3-20.8-12.1 0-24.3 4.1-35.2 9.2l-2.6-25.6zM235.9 290h32v32h-32v-32z"/></svg>