<svg id="Layer_1" xmlns="http://www.w3.org/2000/svg" viewBox="0 0 494.4 452.1"><style>.st0{fill:url(#SVGID_1_)}.st1{fill:url(#SVGID_2_)}.st2{fill:url(#SVGID_3_)}.st3{fill:#8a8a8a}.st4{fill:#f1f1f1}.st5{fill:#5a5a5a}.st6{fill:#9b9b9b}.st7{fill:#f7f7f7}.st8{fill:#e4e4e4}.st9{fill:#e9e9e9}.st10{fill:url(#SVGID_4_)}.st11{fill:gray}.st12{fill:#fff}.st13{fill:#767676}.st14{fill:url(#SVGID_5_)}.st15{fill:#c3c3c3}.st16{fill:#dedede}.st17{fill:url(#SVGID_6_)}.st18{fill:#2d2d2d}.st19{fill:#eaeaea}.st20{fill:#3d3d3d}.st21{fill:#5d5d5d}.st22{fill:#353535}</style><linearGradient id="SVGID_1_" gradientUnits="userSpaceOnUse" x1="232.128" y1="-101.348" x2="232.128" y2="119.081" gradientTransform="matrix(1 0 0 -1 0 346.82)"><stop offset="0" stop-color="#919191"/><stop offset=".25" stop-color="#8d8d8d"/><stop offset=".53" stop-color="#838383"/><stop offset=".81" stop-color="#727272"/><stop offset="1" stop-color="#646464"/></linearGradient><path class="st0" d="M227.5 227.7h9.2v220.4h-9.2z"/><linearGradient id="SVGID_2_" gradientUnits="userSpaceOnUse" x1="179.591" y1="-102.195" x2="179.591" y2="121.832" gradientTransform="matrix(.9964 -.00087 -.00087 -.9964 -1.677 346.424)"><stop offset="0" stop-color="#919191"/><stop offset=".25" stop-color="#8d8d8d"/><stop offset=".53" stop-color="#838383"/><stop offset=".81" stop-color="#727272"/><stop offset="1" stop-color="#646464"/></linearGradient><path class="st1" d="M87.1 442.4L260.3 224l7.2 5.8L94.2 448.2z"/><linearGradient id="SVGID_3_" gradientUnits="userSpaceOnUse" x1="290.487" y1="-101.188" x2="290.487" y2="122.875" gradientTransform="matrix(.9964 .00105 .00105 -.9964 -1.682 347.314)"><stop offset="0" stop-color="#919191"/><stop offset=".25" stop-color="#8d8d8d"/><stop offset=".53" stop-color="#838383"/><stop offset=".81" stop-color="#727272"/><stop offset="1" stop-color="#646464"/></linearGradient><path class="st2" d="M197.5 229.9l7.3-5.9L378 442.4l-7.2 5.8z"/><path class="st3" d="M390.2 342.1H53.1V62h357.5v280.1z"/><path class="st4" d="M376.2 74.3H87.4c-10.2 0-18.6 8.3-18.6 18.6V311c0 10.2 8.3 18.6 18.6 18.6h288.7c10.2 0 18.6-8.3 18.6-18.6V93c.1-10.3-8.2-18.7-18.5-18.7z"/><path class="st5" d="M73.8 439h34.3v13.1H73.8zm141.2 0h34.3v13.1H215zm139.3 0h34.3v13.1h-34.3z"/><path class="st6" d="M91 91h56v6H91zm68.1 0h128.7v6H159.1zm145 0h70.2v6h-70.2zM91 104h56v6H91zm68.1 0h128.7v6H159.1zm145 0h70.2v6h-70.2zM91 117h56v6H91zm68.1 0h128.7v6H159.1zm145 0h70.2v6h-70.2zM91 130h56v6H91zm68.1 0h128.7v6H159.1zm145 0h70.2v6h-70.2zM91 143h56v6H91zm68.1 0h128.7v6H159.1zm145 0h70.2v6h-70.2zM91 156h56v6H91zm68.1 0h128.7v6H159.1zm145 0h70.2v6h-70.2zM91 169h56v6H91zm68.1 0h128.7v6H159.1zm145 0h70.2v6h-70.2zM91 182h56v6H91zm68.1 0h128.7v6H159.1zm145 0h70.2v6h-70.2zM91 195h56v6H91zm68.1 0h128.7v6H159.1zm145 0h70.2v6h-70.2zM91 208h56v6H91zm68.1 0h128.7v6H159.1zm145 0h70.2v6h-70.2zM91 221h56v6H91zm68.1 0h128.7v6H159.1zm145 0h70.2v6h-70.2zM91 234h56v6H91zm68.1 0h128.7v6H159.1zm145 0h70.2v6h-70.2zM91 247h56v6H91zm68.1 0h128.7v6H159.1zm145 0h70.2v6h-70.2zM91 260h56v6H91zm68.1 0h128.7v6H159.1zm145 0h70.2v6h-70.2zM91 273h56v6H91zm68.1 0h128.7v6H159.1zm145 0h70.2v6h-70.2zM91 286h56v6H91zm68.1 0h128.7v6H159.1zm145 0h70.2v6h-70.2zM91 299h56v6H91zm68.1 0h128.7v6H159.1zm145 0h70.2v6h-70.2zM91 312h56v6H91zm68.1 0h128.7v6H159.1zm145 0h70.2v6h-70.2z"/><title>mascot-01-gray</title><path class="st7" d="M351.5 344.6c-1.2-.2-2.3-.9-3.2-1.7h3.1l.1 1.7z"/><path class="st8" d="M341.9 372s.6-7.4-2.3-7.3c-2.9 0-1.8 4.4-1.8 4.4s-8.1-6.8-10.2-4.3c-2.2 2.5 4.3 4.3 4.3 4.3s-6.3-1.5-6.3 2.1 5.5 2.5 5.5 2.5-5.1 2.7-3 4.9c2.1 2.3 5.8-.9 5.8-.9.8.7 1.8.9 2.8.8l5.2-6.5z"/><path class="st9" d="M383.8 378.1s-6.9 8.8-21.7 8.7-21.7-6.5-21.7-6.5l4.9-5.8c5.1 3 10.9 4.6 16.8 4.8 9 0 21.7-10.6 21.7-10.6v9.4z"/><path class="st5" d="M391.5 417.5l1.6 34.7h-21.4s8-5.4 14.4-7.4l-2.3-34.6h26.3l-2.4 34.6c6.5 2 14.4 7.4 14.4 7.4h-21.4l1.6-34.7h-10.8z"/><path class="st9" d="M410.2 376.8s5.8-.2 7.9 7.9c2.3 9.2-5.9 13.5-5.9 13.5v9.6s17.1-6.1 13-24.2c-3.9-16.5-16.7-16.5-16.7-16.5l1.7 9.7z"/><linearGradient id="SVGID_4_" gradientUnits="userSpaceOnUse" x1="419.347" y1="-50.84" x2="411.266" y2="-56.383" gradientTransform="matrix(1 0 0 -1 0 346.82)"><stop offset="0" stop-color="#efefef" stop-opacity="0"/><stop offset="1" stop-color="#c2c2c2"/></linearGradient><path class="st10" d="M421.6 400.9c-2.5 3-5.8 5.3-9.4 6.8v-9.6c2-1.1 3.6-2.7 4.8-4.7l4.6 7.5z"/><path class="st11" d="M413.2 407.7l-2.5-40.6-14.1 1.1-14.1-1.1-2.5 40.6s-.5 2.9 3.7 3.2h25.7c4.3-.3 3.8-3.2 3.8-3.2z"/><path class="st9" d="M410.7 367l-14.3 18.7-13.9-18.7z"/><path class="st5" d="M402.2 368.1h-5.8l-5.8.7 4 5-2.2 7 4 4.9 3.9-4.9-2.1-7z"/><path class="st12" d="M394.7 368.1l-4.1 6.5-8.1-7.6h12.2zm3.4 0l4.1 6.5 8.1-7.6h-12.2z"/><path class="st13" d="M401.4 383.9h7.6v2.7h-7.6z"/><linearGradient id="SVGID_5_" gradientUnits="userSpaceOnUse" x1="359.108" y1="-37.367" x2="342.592" y2="-28.719" gradientTransform="matrix(1 0 0 -1 0 346.82)"><stop offset="0" stop-color="#efefef" stop-opacity="0"/><stop offset="1" stop-color="#c2c2c2"/></linearGradient><path class="st14" d="M362.1 379.4c-5.9-.2-11.7-1.9-16.8-4.9l-4.9 5.8s6.9 6.3 21.7 6.4v-7.3z"/><path class="st9" d="M346.8 374.6l-5.5 7.2-5-2.4 6-8.5z"/><path class="st15" d="M376.2 320.8s-15.1 4.7-12-8.9c3.1-13.6 14.3-1.7 14.3-1.7l-2.3 10.6z"/><path class="st16" d="M445 344.6c17.3-36.6-23.4-47.1-34.3-49.4-10.9-2.3-30.9-14.1-33.9 2.7-1.7 9.6-6.7 20.1-10.4 29.2-8.4 21.2 10.6 34.2 10.6 34.2 4.9 3.3 10.1 5.9 14.1 7.1 9.6 3 23.8 1.8 32-1 7.8-2.7 21.5-21.3 21.5-21.3l.4-1.5z"/><path class="st15" d="M441.9 342.9s-9.3 15.7-19.1 20.4c-9.8 4.7-20.1 5.7-32.5 1.9-10.4-3.2-18.3-10-22.9-15 3.8 7.1 9.6 11.1 9.6 11.1 4.9 3.3 10.1 5.9 14.1 7.1 9.6 3 23.8 1.8 32-1 7.8-2.7 21.5-21.3 21.5-21.3l-2.7-3.2z"/><radialGradient id="SVGID_6_" cx="-631.088" cy="-86.578" r="8.2" gradientTransform="rotate(-158.24 25.39 61.49) scale(.6273)" gradientUnits="userSpaceOnUse"><stop offset="0" stop-color="#c8c8c8"/><stop offset=".439" stop-color="#cecece" stop-opacity=".561"/><stop offset="1" stop-color="#dfdfdf" stop-opacity="0"/></radialGradient><circle class="st17" cx="373.7" cy="325.2" r="5.1"/><ellipse transform="rotate(-68.235 385.693 322.213)" class="st18" cx="385.7" cy="322.2" rx="3.8" ry="3.8"/><ellipse transform="rotate(-68.235 388.392 334.457)" class="st19" cx="388.4" cy="334.4" rx="1.4" ry="1.4"/><path class="st15" d="M438.9 309.6s-16.5-1.5-28.9-4.3c0 0-1.9.3-6.3-.1 9.6 4.1 31.2 6.3 31.2 6.3s-4.4 20 9.9 33.5c-12.8-13.2-5.9-35.4-5.9-35.4z"/><ellipse transform="rotate(-68.235 385.292 321.732)" class="st20" cx="385.3" cy="321.7" rx="2.1" ry="2.1"/><path class="st15" d="M383.5 334.1s4.1 5.2 6.5 6.5c.1-.1-8.5-.1-6.5-6.5zm46.1-.1s-1.4-6.6-11.7-10.7c-10.3-4.1-13.6-2.3-13.6-2.3l-7.9-3.1s-7-6-11.8-7.9c-4.9-2-10.4-2.4-10.4-2.4l.9-2.6 11.4 2.4 15.3 9.6 18.9 4.1 8.2 5.8 1 6.6-.3.5z"/><path class="st21" d="M434.6 328.1s-6.6-6-14.9-9.3c-8.3-3.3-14.5-2.5-18.3-4-3.8-1.5-7.7-6.4-16-9.8-8.3-3.3-17.2-3.5-17.2-3.5-1.5-.1-2.5 2.7-2.1 4.1.4 1.3.3 2.6.3 2.6-1.7 6.7-2.5 18.1 9.2 22.9 11.7 4.8 19-6.9 20.5-9.2 1.5-2.3 3-1.5 3-1.5s1.7.4 1.2 3.1-3.2 16.2 8.5 20.7c11.7 4.6 19.1-4.2 22.4-10.2 0 0 .8-1 2-1.7 1.4-.5 2.7-3.2 1.4-4.2zm-58.3.3c-9.5-3.1-8.8-13.4-5.8-19.1s14.3-.7 14.3-.7 9.8 3.2 8.6 9.5c-1.4 6.3-7.6 13.3-17.1 10.3zm34.1 13.6c-9-4.3-8.7-13.7-5.3-19.1 3.4-5.4 12.8-1 12.8-1s11.7 4.1 9.9 10.3c-1.8 6.2-8.3 14.2-17.4 9.8z"/><path class="st12" d="M368.1 304.4c.3-.8 1.3-1.2 2.1-.9.8.3 1.2 1.3.9 2.1-.3.8-1.3 1.2-2.1.9-.9-.3-1.3-1.3-.9-2.1zm64.8 25.9c.3-.8-.1-1.7-.9-2.1-.8-.3-1.7.1-2.1.9-.3.8.1 1.7.9 2.1.8.3 1.7-.1 2.1-.9z"/><ellipse transform="rotate(-68.235 410.104 332.724)" class="st18" cx="410.1" cy="332.7" rx="3.8" ry="3.8"/><ellipse transform="rotate(-68.235 409.96 332.19)" class="st20" cx="409.9" cy="332.2" rx="2.1" ry="2.1"/><path class="st22" d="M458.6 300.4s-2.1-13.8-22.2-25.3c-20.1-11.5-44-7-53.9 5.6-9.9 12.6-6.4 20.8-6.4 20.8l7.9-11.1c10.5 9 26.5 12 26.5 12-1.8.7-7.3 1.1-7.3 1.1.3.1.8.2 1.1.4 12.1 3.7 34.6 5.8 34.6 5.8s-6.9 22.1 5.9 35.5c0-.1 28.4-22.7 13.8-44.8z"/><path class="st18" d="M458.6 300.4s-26.1-2.3-45.7-8.3c-19.5-6.1-30.5-11.4-30.5-11.4-9.9 12.6-6.4 20.8-6.4 20.8l7.9-11.1c10.5 9 26.5 12 26.5 12-1.8.7-7.3 1.1-7.3 1.1.3.1.8.2 1.1.4 12.1 3.7 34.6 5.8 34.6 5.8s-7 22.5 5.8 35.8c.1-.1 28.6-23 14-45.1z"/><path class="st15" d="M383.9 290.4c10.5 9 26.5 12 26.5 12-.8.3-2.4.5-3.9.8.1-.1-16.2-4.5-22.6-12.8z"/><path class="st16" d="M435.2 350.7s8.2 13.5 14.9 1.2c6.7-12.3-9.6-10.8-9.6-10.8l-5.3 9.6z"/><path class="st22" d="M413.5 310.5s4.7-3.3 9.2-.5c4.5 2.8 4.3 7.4 4.3 7.4s-2.2-3.6-5.4-5.2c-4.4-2.1-8.1-1.7-8.1-1.7zm-28.4-10.3s3.1-3.3 8.3-2c5.2 1.3 6 7 6 7s-2.3-3.4-6.8-4.9c-4.5-1.4-7.5-.1-7.5-.1z"/><ellipse transform="rotate(-68.235 382.03 348.478)" class="st5" cx="382" cy="348.5" rx="3.1" ry="2.5"/></svg>